# xmcd
# 
# Track frame offsets:
#     150
#     11767
#     27282
#     40745
#     58050
#     78178
#     96753
#     116638
#     128704
#     147717
#     165781
# 
# Disc length: 2471
# 
# Revision: 1
# Processed by: cddbd v1.5.2PL0 Copyright (c) Steve Scherf et al.
# Submitted via: fre:ac v1.0.31
# 
DISCID=8809a50b
DTITLE=Glim Spanky - Looking For The Magic
DYEAR=2018
DGENRE=Japanese Rock
TTITLE0=01-4 Dimensional Desert
TTITLE1=02-Love Is There
TTITLE2=03-TV Show
TTITLE3=04-ハートが冷める前に
TTITLE4=05-The Flowers
TTITLE5=06-In the air
TTITLE6=07-愚か者たち
TTITLE7=08-Hello Sunshine
TTITLE8=09-All Of Us
TTITLE9=10-To The Music
TTITLE10=11-Looking For The Magic
EXTD=YEAR: 2018
EXTT0=
EXTT1=
EXTT2=
EXTT3=
EXTT4=
EXTT5=
EXTT6=
EXTT7=
EXTT8=
EXTT9=
EXTT10=
PLAYORDER=
